<?xml version="1.0" encoding="utf-8"?>
<!-- Generator: Adobe Illustrator 21.1.0, SVG Export Plug-In . SVG Version: 6.00 Build 0)  -->
<svg version="1.1" id="レイヤー_1" xmlns="http://www.w3.org/2000/svg" xmlns:xlink="http://www.w3.org/1999/xlink" x="0px"
	 y="0px" viewBox="0 0 200 30" style="enable-background:new 0 0 200 30;" xml:space="preserve">
<style type="text/css">
	.st0{fill:#FFFFFF;}
</style>
<g>
	<path class="st0" d="M8.1,16.6l2.2-1.3c0.3,2.1,1.6,3.1,3.8,3.1c1.1,0,1.9-0.3,2.6-0.9s1-1.3,1-2.2c0-1.2-0.7-2.4-2.2-3.7l-1.5-1.2
		c-1.2-1-2.1-1.8-2.5-2.4s-0.6-1.3-0.6-2c0-1.4,0.6-2.5,1.7-3.4s2.5-1.4,4.2-1.4c1.3,0,2.6,0.3,3.8,1l-0.7,1.7l-0.3,0.7
		c-0.2,0.4-0.4,0.7-0.7,0.7c-0.1,0-0.2,0-0.3-0.1c0.1-0.4,0.2-0.8,0.2-1.1c0-0.5-0.3-1-0.9-1.4s-1.3-0.5-2.2-0.5c-2,0-3,0.8-3,2.5
		c0,0.6,0.2,1.2,0.7,1.7c0.4,0.5,1.4,1.4,2.8,2.5l1.2,1c1.6,1.3,2.3,2.6,2.3,4c0,1.5-0.6,2.8-1.9,3.8c-1.3,1-2.9,1.5-4.9,1.5
		C10.3,19.4,8.8,18.4,8.1,16.6z"/>
	<path class="st0" d="M26,8.5l-0.6,5.6c-0.1,1-0.2,1.8-0.2,2.2c0,1,0.3,1.4,1,1.4c0.7,0,1.4-0.6,2.2-1.7c0.1,0.2,0.2,0.3,0.2,0.4
		c0,0.5-0.4,1-1.3,1.7s-1.6,1-2.2,1c-1.2,0-1.8-0.8-1.8-2.3c0-0.6,0.1-1.5,0.2-2.8l0.6-5.6h-2.7L23,7h1.4l0.3-2.3l1.9-0.6L26.2,7
		h5.4l-1.5,1.5H26z"/>
	<path class="st0" d="M39.1,13.8c-1,1.6-2,2.9-3.2,3.9c-1.1,1-2.1,1.5-3,1.5c-1.2,0-1.7-0.9-1.7-2.8c0-2.6,0.8-4.8,2.5-6.7
		s3.7-2.8,6-2.8c0.9,0,1.6,0.1,2.2,0.3C42,7.3,42,7.4,42,7.5l-0.2,0.7c-0.1,0.5-0.2,0.7-0.2,0.8l-0.8,5.6l-0.1,0.8
		c-0.1,0.8-0.2,1.3-0.2,1.6c0,0.4,0.1,0.5,0.3,0.5c0.7,0,1.4-0.8,2.2-2.4c0.2,0.1,0.3,0.3,0.3,0.4c0,0.3-0.4,0.9-1.1,1.8
		c-1,1.2-1.9,1.8-2.8,1.8c-0.6,0-0.9-0.4-0.9-1.2c0-0.3,0-0.6,0.1-1.1l0.1-1l0.2-1.1L39.1,13.8z M39.8,8.8c-0.8-0.4-1.5-0.6-2.3-0.6
		c-1.2,0-2.2,0.7-3,2.2s-1.2,3.2-1.2,5.4c0,1.1,0.3,1.6,1,1.6c0.8,0,1.7-0.6,2.7-1.7c1.4-1.5,2.3-3.4,2.6-5.5L39.8,8.8z"/>
	<path class="st0" d="M48.6,8.5l-0.6,5.6c-0.1,1-0.2,1.8-0.2,2.2c0,1,0.3,1.4,1,1.4c0.7,0,1.4-0.6,2.2-1.7c0.1,0.2,0.2,0.3,0.2,0.4
		c0,0.5-0.4,1-1.3,1.7s-1.6,1-2.2,1c-1.2,0-1.8-0.8-1.8-2.3c0-0.6,0.1-1.5,0.2-2.8l0.6-5.6h-2.7L45.5,7h1.4l0.3-2.3L49,4.1L48.7,7
		h5.4l-1.5,1.5H48.6z"/>
	<path class="st0" d="M59.9,15.2c0.2,0.1,0.3,0.3,0.3,0.4c0,0.3-0.4,0.9-1.1,1.8c-1,1.2-1.9,1.8-2.8,1.8c-0.6,0-0.9-0.4-0.9-1.2
		c0-0.3,0.1-1.4,0.4-3.2l0.5-3.4l0.1-0.9l0.1-0.7c0-0.3,0.1-0.5,0.1-0.7c0-0.4-0.1-0.6-0.4-0.6c-0.7,0-1.4,0.7-2.1,2.2
		c-0.2-0.1-0.2-0.3-0.2-0.4c0-0.5,0.5-1.2,1.4-2.1s1.7-1.3,2.3-1.3c0.6,0,1,0.4,1,1.3c0,0.2,0,0.5-0.1,1l-0.1,0.8
		c0,0.1-0.1,0.4-0.1,1l-0.5,3.6l-0.1,0.8c-0.1,0.8-0.2,1.3-0.2,1.6c0,0.4,0.1,0.5,0.3,0.5C58.5,17.5,59.2,16.7,59.9,15.2z M57.4,5.1
		l1.1-2.6c0.9-0.4,1.7-0.9,2.3-1.6c0.1,0.1,0.1,0.2,0.1,0.4C60.9,2.3,59.8,3.6,57.4,5.1z"/>
	<path class="st0" d="M70.3,7l-1.4,1.7c-0.7-0.3-1.3-0.4-1.9-0.4c-1.1,0-2,0.5-2.6,1.4s-1,2.2-1,3.9c0,1.2,0.2,2.1,0.7,2.8
		c0.5,0.7,1.1,1.1,1.8,1.1c1.3,0,2.3-0.8,3-2.5c0.2,0.2,0.3,0.4,0.3,0.6c0,0.7-0.5,1.5-1.6,2.3s-2.1,1.3-3,1.3
		c-0.9,0-1.6-0.4-2.2-1.1s-0.8-1.6-0.8-2.7c0-2.2,0.7-4.2,2.2-6s3.1-2.7,5-2.7C69.3,6.7,69.9,6.8,70.3,7z"/>
	<path class="st0" d="M77.1,17.5l3.3,0.2l-1.5,1.5L73,18.8l1.6-1.6l1.4,0.2c1-0.7,1.7-2,1.9-4l0.1-1.2l1.1-9.6
		c-3.8,0.7-5.8,2.2-5.8,4.4c0,0.9,0.2,1.6,0.5,2.3l-2,1.8c-0.2-0.7-0.3-1.3-0.3-2c0-2.3,1-4.2,2.9-5.6s4.5-2.2,7.6-2.2
		c4.2,0,6.2,1.4,6.2,4.1c0,1.7-0.8,3.2-2.3,4.4c-1.6,1.2-3.5,1.9-5.9,2.1c-0.2,2-0.5,3.3-0.8,3.9C79,16.3,78.3,16.9,77.1,17.5z
		 M81.2,2.4l-0.9,8.1c0.5,0.1,0.9,0.1,1.2,0.1c3.3,0,4.9-1.4,4.9-4.3C86.4,3.7,84.7,2.4,81.2,2.4z"/>
	<path class="st0" d="M96.7,13.8c-1,1.6-2,2.9-3.2,3.9c-1.1,1-2.1,1.5-3,1.5c-1.2,0-1.7-0.9-1.7-2.8c0-2.6,0.8-4.8,2.5-6.7
		c1.7-1.9,3.7-2.8,6-2.8c0.9,0,1.6,0.1,2.2,0.3c0,0.2-0.1,0.2-0.1,0.3l-0.2,0.7c-0.1,0.5-0.2,0.7-0.2,0.8l-0.8,5.6l-0.1,0.8
		c-0.1,0.8-0.2,1.3-0.2,1.6c0,0.4,0.1,0.5,0.3,0.5c0.7,0,1.4-0.8,2.2-2.4c0.2,0.1,0.3,0.3,0.3,0.4c0,0.3-0.4,0.9-1.1,1.8
		c-1,1.2-1.9,1.8-2.8,1.8c-0.6,0-0.9-0.4-0.9-1.2c0-0.3,0-0.6,0.1-1.1l0.1-1l0.2-1.1L96.7,13.8z M97.4,8.8c-0.8-0.4-1.5-0.6-2.3-0.6
		c-1.2,0-2.2,0.7-3,2.2c-0.8,1.4-1.2,3.2-1.2,5.4c0,1.1,0.3,1.6,1,1.6c0.8,0,1.7-0.6,2.7-1.7c1.4-1.5,2.3-3.4,2.6-5.5L97.4,8.8z"/>
	<path class="st0" d="M112.7,7.2c0,0.2-0.1,0.2-0.1,0.3l-0.1,0.7c-0.1,0.5-0.2,0.8-0.2,0.8l-0.5,4.6c-0.1,0.8-0.2,2.1-0.3,4.1
		c-0.1,2.4-0.4,4.3-0.7,5.4c-0.3,1.2-1,2.2-1.8,3.1c-2,2.1-4.2,3.2-6.4,3.2c-1.1,0-2-0.4-2.7-1.1s-1.1-1.7-1.1-2.8
		c0-2.3,1.4-4.5,4.2-6.7c-0.6-0.5-0.9-1.3-0.9-2.5c0-2.6,0.8-4.8,2.5-6.7c1.7-1.9,3.7-2.8,6-2.8C111.5,6.9,112.2,7,112.7,7.2z
		 M110,13.9c-2.3,3.5-4.4,5.2-6.2,5.2c-0.1,0-0.2,0-0.4,0c-2,2-3,3.7-3,5.3c0,1.1,0.4,1.9,1.1,2.7c0.8,0.7,1.7,1.1,2.8,1.1
		c1.7,0,3-0.8,3.9-2.3c0.7-1.2,1.2-3.9,1.4-8.3C109.8,15.9,109.9,14.7,110,13.9z M110.5,8.8c-0.6-0.4-1.4-0.6-2.3-0.6
		c-1.2,0-2.1,0.7-2.9,2.2c-0.8,1.5-1.2,3.2-1.2,5.4c0,1.1,0.3,1.7,1,1.7c0.7,0,1.7-0.6,2.7-1.7c1.5-1.6,2.3-3.4,2.6-5.4L110.5,8.8z"
		/>
	<path class="st0" d="M122,14.8c0.2,0.1,0.3,0.3,0.3,0.5c0,0.3-0.3,0.7-0.8,1.3c-1.4,1.7-2.9,2.5-4.3,2.5c-0.9,0-1.6-0.3-2.1-1
		s-0.8-1.6-0.8-2.6c0-1.9,0.7-3.9,2.2-5.9c1.5-2,2.9-3,4.3-3c1,0,1.5,0.6,1.5,1.7c0,1.2-0.6,2.5-1.8,3.6c-1.2,1.2-2.7,2-4.4,2.5
		c0.2,2,1,3,2.4,3C119.9,17.5,121.1,16.6,122,14.8z M116.2,12.9c0.2,0.1,0.5,0.1,0.7,0.1c1,0,2-0.3,2.8-1s1.2-1.4,1.2-2.3
		c0-1-0.5-1.5-1.5-1.5c-0.7,0-1.4,0.4-2,1.3C116.7,10.5,116.3,11.6,116.2,12.9z"/>
	<path class="st0" d="M123.2,18.5l1.8-1.4c0.7,0.7,1.5,1.1,2.5,1.1c1.2,0,1.8-0.6,1.8-1.8c0-0.7-0.6-1.6-1.7-2.7l-0.7-0.7
		c-1.1-1.1-1.6-2-1.6-2.7c0-1,0.4-1.8,1.3-2.5c0.8-0.7,1.9-1,3.1-1c0.7,0,1.4,0.1,2.2,0.4l-1.5,1.4c-0.6-0.5-1.4-0.7-2.1-0.7
		c-0.9,0-1.4,0.4-1.4,1.2c0,0.6,0.5,1.4,1.5,2.4l0.8,0.8c1.2,1.2,1.8,2.2,1.8,2.9c0,1.1-0.5,2-1.5,2.8s-2.2,1.2-3.5,1.2
		C124.9,19.2,124,18.9,123.2,18.5z"/>
</g>
</svg>
